<?xml version="1.0" encoding="utf-8"?>
<!-- Generator: Adobe Illustrator 17.0.0, SVG Export Plug-In . SVG Version: 6.00 Build 0)  -->
<!DOCTYPE svg PUBLIC "-//W3C//DTD SVG 1.1//EN" "http://www.w3.org/Graphics/SVG/1.1/DTD/svg11.dtd">
<svg version="1.1" id="Layer_1" xmlns="http://www.w3.org/2000/svg" xmlns:xlink="http://www.w3.org/1999/xlink" x="0px" y="0px"
	 width="85px" height="23px" viewBox="7 0.875 85 23" enable-background="new 7 0.875 85 23" xml:space="preserve">
<g>
	<path fill="#333333" d="M23.429,9.418l-4.142-2.391c-0.07-1.897-2.957-5.182-3.29-5.555c-0.19-0.213-0.556-0.212-0.746,0
		c-0.333,0.373-3.219,3.659-3.29,5.555L7.819,9.418c-0.155,0.089-0.25,0.255-0.25,0.433v8.724c0,0.179,0.095,0.344,0.25,0.433
		l7.555,4.362c0.078,0.045,0.164,0.067,0.25,0.067s0.172-0.022,0.25-0.067l7.555-4.362c0.155-0.089,0.25-0.254,0.25-0.433V9.851
		C23.679,9.672,23.583,9.507,23.429,9.418z M15.624,13.635L9.069,9.851l3.032-1.75c0.438,1.535,1.849,2.663,3.523,2.663
		s3.085-1.128,3.523-2.662l3.032,1.75L15.624,13.635z M15.624,2.568c1.158,1.376,2.666,3.508,2.666,4.529
		c0,1.47-1.196,2.666-2.666,2.666s-2.666-1.196-2.666-2.666C12.958,6.077,14.466,3.944,15.624,2.568z M8.569,10.717l6.555,3.785
		v7.569l-6.555-3.784V10.717z M16.124,22.07v-7.569l6.555-3.785v7.57L16.124,22.07z"/>
	<g>
		<path fill="#26A9F2" d="M28.687,10.644h4.354v0.036l-1.847,2.926c1.091,0.156,1.907,0.96,1.907,2.159
			c0,1.438-1.127,2.351-2.459,2.351c-0.936,0-1.535-0.252-2.003-0.612v-0.995c0.528,0.516,1.224,0.792,1.943,0.792
			c0.959,0,1.655-0.54,1.655-1.523c0-1.092-0.983-1.644-2.279-1.595v-0.036l1.691-2.663h-2.962
			C28.687,11.484,28.687,10.644,28.687,10.644z"/>
		<path fill="#26A9F2" d="M34.41,10.644h2.363c2.159,0,3.574,1.439,3.574,3.682c0,2.242-1.416,3.682-3.574,3.682H34.41V10.644z
			 M36.761,17.155c1.667,0,2.651-1.104,2.651-2.83c0-1.727-0.983-2.842-2.651-2.842h-1.403v5.672H36.761z"/>
		<path fill="#26A9F2" d="M45.269,15.057v2.95h-0.947v-7.363h2.723c1.487,0,2.458,0.755,2.458,2.207
			c0,1.439-0.971,2.207-2.458,2.207h-1.776V15.057z M47.033,11.471H45.27v2.746h1.763c0.996,0,1.535-0.539,1.535-1.367
			C48.568,12.011,48.028,11.471,47.033,11.471z"/>
		<path fill="#26A9F2" d="M53.392,13.581c-0.144-0.096-0.372-0.144-0.6-0.144c-0.563,0-1.056,0.372-1.235,0.995v3.574h-0.899v-5.325
			h0.899v0.696c0.228-0.456,0.731-0.804,1.319-0.804c0.228,0,0.42,0.036,0.516,0.084V13.581z"/>
		<path fill="#26A9F2" d="M54.951,11.651c-0.312,0-0.575-0.264-0.575-0.576c0-0.324,0.264-0.576,0.575-0.576
			c0.324,0,0.588,0.252,0.588,0.576C55.54,11.387,55.277,11.651,54.951,11.651z M55.409,18.007H54.51v-5.325h0.899V18.007z"/>
		<path fill="#26A9F2" d="M57.017,12.682h0.899v0.671c0.312-0.42,0.888-0.779,1.571-0.779c1.211,0,1.871,0.779,1.871,1.942v3.49
			h-0.912V14.66c0-0.744-0.371-1.26-1.175-1.26c-0.624,0-1.164,0.42-1.355,0.996v3.609h-0.899V12.682z"/>
		<path fill="#26A9F2" d="M64.372,18.007h-0.899v-4.558h-1.116v-0.767h1.116v-1.403h0.899v1.403h1.235v0.767h-1.235V18.007z"/>
		<path fill="#26A9F2" d="M67.109,15.5c0.035,1.235,0.815,1.823,1.787,1.823c0.6,0,1.031-0.144,1.511-0.504v0.828
			c-0.432,0.336-0.983,0.468-1.619,0.468c-1.535,0-2.566-1.044-2.566-2.723c0-1.655,0.959-2.818,2.375-2.818
			c1.438,0,2.183,1.043,2.183,2.603V15.5C70.779,15.5,67.109,15.5,67.109,15.5z M67.156,14.793h2.746
			c-0.036-0.779-0.432-1.451-1.295-1.451C67.9,13.342,67.324,13.81,67.156,14.793z"/>
		<path fill="#26A9F2" d="M74.74,13.581c-0.144-0.096-0.372-0.144-0.6-0.144c-0.563,0-1.056,0.372-1.235,0.995v3.574h-0.899v-5.325
			h0.899v0.696c0.228-0.456,0.731-0.804,1.319-0.804c0.228,0,0.42,0.036,0.516,0.084V13.581z"/>
		<path fill="#26A9F2" d="M81.602,10.536c0.852,0,1.5,0.24,1.979,0.635v0.996c-0.6-0.552-1.212-0.779-1.967-0.779
			c-1.487,0-2.519,1.163-2.519,2.938s1.031,2.938,2.519,2.938c0.755,0,1.367-0.24,1.967-0.779v0.995
			c-0.479,0.396-1.128,0.636-1.979,0.636c-1.967,0-3.454-1.487-3.454-3.79S79.635,10.536,81.602,10.536z"/>
		<path fill="#26A9F2" d="M87.051,18.115c-1.463,0-2.446-1.14-2.446-2.771s0.983-2.771,2.446-2.771c1.451,0,2.447,1.14,2.447,2.771
			S88.501,18.115,87.051,18.115z M87.051,13.365c-0.959,0-1.535,0.816-1.535,1.979s0.576,1.979,1.535,1.979
			c0.96,0,1.535-0.815,1.535-1.979S88.01,13.365,87.051,13.365z"/>
		<path fill="#26A9F2" d="M90.796,16.76c0.348,0,0.636,0.288,0.636,0.659c0,0.372-0.288,0.648-0.636,0.648
			c-0.359,0-0.647-0.276-0.647-0.648C90.148,17.048,90.437,16.76,90.796,16.76z"/>
	</g>
</g>
</svg>
